<?xml version="1.0" standalone="no"?>
<!DOCTYPE svg PUBLIC "-//W3C//DTD SVG 20010904//EN"
 "http://www.w3.org/TR/2001/REC-SVG-20010904/DTD/svg10.dtd">
<svg version="1.0" xmlns="http://www.w3.org/2000/svg"
 width="646.000000pt" height="800.000000pt" viewBox="0 0 646.000000 800.000000"
 preserveAspectRatio="xMidYMid meet">

<g transform="translate(0.000000,800.000000) scale(0.100000,-0.100000)"
fill="#000000" stroke="none">
<path d="M1246 7069 c-44 -5 -82 -12 -85 -16 -9 -12 -59 -33 -80 -33 -10 0
-21 -8 -24 -19 -3 -12 -17 -21 -41 -25 -21 -4 -40 -14 -43 -24 -3 -9 -19 -29
-34 -44 -16 -14 -31 -39 -35 -55 -4 -15 -15 -36 -25 -46 -11 -10 -19 -21 -19
-26 0 -4 -9 -18 -19 -30 -29 -33 -45 -164 -37 -306 8 -165 15 -207 37 -228 11
-10 19 -28 19 -41 0 -13 6 -26 14 -29 8 -3 17 -21 21 -39 13 -64 27 -98 41
-98 8 0 16 -15 20 -41 4 -23 17 -53 30 -67 13 -13 24 -28 24 -32 0 -4 8 -10
18 -12 10 -3 24 -23 31 -46 8 -24 21 -42 33 -45 11 -3 22 -15 25 -26 3 -12 20
-28 38 -37 20 -9 40 -30 50 -50 9 -19 22 -34 30 -34 8 0 24 -13 36 -30 12 -16
35 -32 51 -35 17 -4 34 -17 40 -31 6 -13 17 -24 23 -24 7 0 20 -11 29 -25 9
-14 25 -25 36 -25 11 0 20 -6 20 -14 0 -8 11 -17 24 -20 14 -3 27 -14 30 -24
9 -28 -9 -76 -32 -87 -12 -5 -22 -16 -22 -23 0 -7 -11 -17 -24 -22 -18 -6 -26
-19 -31 -49 -4 -27 -12 -41 -22 -41 -8 0 -20 -13 -26 -30 -10 -26 -17 -30 -47
-30 -52 0 -110 11 -105 20 3 5 -37 11 -87 14 -317 20 -418 24 -436 20 -23 -6
-32 -60 -32 -186 l0 -78 45 0 c34 0 47 -5 55 -20 6 -11 17 -20 25 -20 11 0 15
-13 15 -56 0 -79 11 -94 66 -94 54 0 68 -23 48 -79 -7 -20 -13 -44 -14 -54 0
-10 -11 -22 -25 -27 -15 -6 -25 -17 -25 -30 0 -11 -7 -20 -15 -20 -13 0 -35
-55 -35 -88 0 -8 -8 -26 -19 -40 -30 -43 -38 -143 -26 -314 l8 -108 -31 0
c-38 0 -165 -29 -172 -39 -3 -4 -52 -16 -109 -26 -56 -10 -105 -24 -108 -31
-2 -7 -15 -15 -29 -18 -13 -4 -24 -14 -24 -23 0 -13 8 -15 52 -10 28 4 54 11
57 16 3 5 27 12 54 16 26 4 51 13 55 20 4 8 55 21 117 31 61 10 114 24 118 31
4 7 15 13 23 13 21 0 83 -68 91 -99 3 -14 10 -29 15 -32 15 -10 -10 -59 -36
-69 -15 -5 -27 -20 -31 -39 -3 -16 -17 -37 -31 -45 -13 -9 -24 -26 -24 -37 0
-12 -8 -23 -20 -26 -11 -3 -23 -16 -26 -29 -3 -13 -12 -24 -18 -24 -7 0 -18
-22 -26 -49 -8 -29 -20 -51 -30 -54 -10 -2 -20 -24 -28 -57 -7 -28 -21 -63
-32 -77 -11 -14 -20 -34 -20 -45 0 -10 -6 -21 -14 -24 -9 -3 -21 -40 -31 -97
-9 -50 -23 -96 -31 -102 -10 -7 -17 -49 -24 -140 -13 -160 -20 -215 -30 -215
-11 0 -12 -93 -1 -100 5 -3 15 -62 20 -130 17 -188 22 -220 37 -220 7 0 16
-16 19 -38 10 -59 27 -106 40 -114 7 -4 16 -19 19 -33 4 -14 15 -34 26 -45 11
-11 20 -29 20 -40 0 -12 11 -31 24 -43 12 -12 29 -39 35 -59 7 -22 19 -38 28
-38 8 0 17 -9 20 -20 3 -11 11 -20 18 -20 12 0 45 -57 45 -79 0 -6 7 -11 15
-11 8 0 15 -4 15 -8 0 -16 62 -71 83 -74 12 -2 22 -8 22 -15 0 -17 72 -83 90
-83 8 0 15 -6 15 -13 0 -6 22 -22 49 -35 27 -12 51 -29 55 -37 3 -8 12 -15 21
-15 8 0 15 -4 15 -10 0 -11 64 -40 88 -40 8 0 23 -7 33 -16 10 -9 56 -23 103
-32 47 -10 86 -22 86 -28 0 -6 24 -15 52 -18 29 -4 60 -13 68 -20 13 -12 109
-26 271 -41 31 -3 69 -12 85 -20 16 -8 39 -15 52 -15 44 0 79 -27 86 -65 4
-21 13 -35 21 -35 8 0 18 -12 21 -26 7 -28 54 -54 99 -54 46 0 103 24 114 47
14 31 80 33 88 3 4 -17 14 -20 54 -20 35 0 51 4 55 15 4 8 13 15 21 15 8 0 21
16 29 35 8 19 21 35 29 35 8 0 15 7 15 16 0 14 10 16 76 12 42 -3 79 -10 83
-15 5 -8 222 -21 374 -23 10 0 17 -8 17 -19 0 -10 7 -24 15 -31 8 -7 15 -19
15 -27 0 -8 4 -12 9 -9 5 3 14 0 20 -8 26 -31 137 -24 172 11 12 12 76 -1 93
-18 13 -12 78 -12 108 0 14 5 32 27 43 53 11 23 25 48 31 53 6 6 16 29 24 51
l13 42 166 0 c176 1 301 16 314 38 4 7 28 16 52 20 27 4 45 12 45 19 0 8 18
16 43 20 63 10 77 15 77 29 0 8 14 16 32 20 74 15 108 28 108 41 0 7 9 17 20
20 11 3 25 15 30 26 6 10 17 19 25 19 23 0 65 22 65 34 0 7 13 19 29 29 16 9
36 32 45 51 11 24 25 36 46 41 17 4 30 13 30 20 0 18 32 78 46 87 7 4 18 28
25 53 7 25 19 45 26 45 6 0 15 10 19 23 14 46 47 66 130 79 43 6 82 17 86 23
4 7 36 18 70 25 34 8 78 24 97 37 18 13 39 23 46 23 7 0 15 7 19 15 3 8 14 15
25 15 11 0 28 11 39 25 11 14 23 25 27 25 16 0 114 101 127 131 6 14 21 30 32
35 12 5 22 17 24 28 2 10 19 34 37 52 18 18 42 59 54 91 11 32 25 59 31 61 5
2 17 30 26 63 9 32 20 59 25 59 4 0 10 13 14 30 4 16 13 33 20 38 8 4 21 38
28 75 8 36 21 77 30 90 9 13 23 75 33 138 9 63 23 123 31 134 19 28 19 482 -1
510 -7 11 -16 43 -20 70 -13 99 -30 160 -47 177 -9 9 -20 35 -24 58 -4 24 -14
44 -26 50 -10 6 -19 17 -19 26 0 8 -7 17 -16 21 -8 3 -20 16 -25 30 -5 13 -19
27 -32 32 -13 5 -29 22 -36 38 -9 23 -23 33 -67 46 -62 19 -107 20 -179 4 -43
-10 -50 -16 -58 -43 -6 -22 -19 -35 -42 -44 -23 -9 -37 -24 -50 -54 -9 -22
-23 -55 -30 -71 -8 -17 -17 -46 -20 -63 -10 -59 -23 -69 -88 -74 -38 -3 -64
-10 -71 -20 -6 -8 -26 -19 -43 -22 -27 -6 -37 -17 -63 -69 -17 -34 -34 -82
-38 -106 -5 -28 -14 -48 -27 -55 -11 -6 -23 -15 -26 -20 -4 -5 -14 -6 -23 -3
-12 5 -16 25 -18 94 l-3 88 -70 -3 c-44 -1 -73 -7 -79 -15 -7 -11 -14 -9 -32
8 -19 18 -24 32 -24 74 0 28 -4 51 -10 51 -18 0 -11 39 9 50 11 5 72 10 135
10 97 0 116 2 116 15 0 13 -23 15 -166 14 -182 -2 -184 -1 -184 57 0 38 18 94
31 94 5 0 9 5 9 10 0 6 -6 10 -14 10 -8 0 -18 23 -26 62 -8 34 -22 70 -32 80
-10 10 -18 25 -18 33 0 23 -22 65 -35 65 -7 0 -25 12 -40 26 -15 14 -38 29
-51 34 -24 10 -44 74 -28 90 5 5 41 10 79 12 l70 3 8 116 c5 72 4 125 -2 141
-9 25 -13 26 -125 33 l-116 7 -15 31 c-8 16 -15 38 -15 48 0 10 -6 22 -12 26
-19 12 -38 50 -38 74 0 12 -8 23 -20 26 -13 3 -22 17 -26 39 -3 19 -10 34 -15
34 -5 0 -9 13 -9 29 0 27 5 31 56 47 31 9 58 23 61 30 2 7 18 16 34 19 16 4
29 12 29 19 0 6 20 18 45 25 25 7 50 22 55 32 6 10 28 24 50 30 22 7 40 18 40
26 0 7 5 13 10 13 6 0 10 7 10 16 0 8 19 24 45 35 25 11 45 24 45 30 0 5 11
14 25 19 14 5 30 21 35 35 5 14 16 25 25 25 8 0 15 6 15 13 0 7 24 34 54 61
30 26 57 60 61 74 3 14 17 34 31 44 13 11 24 26 24 33 0 8 9 19 20 25 11 6 20
17 20 26 0 8 7 17 15 20 8 4 15 14 15 24 0 10 7 23 15 30 8 7 15 18 15 25 0 7
6 18 14 24 8 7 18 27 21 44 9 45 27 90 42 105 7 7 13 31 13 52 0 23 7 45 18
56 15 16 17 40 17 206 0 127 -4 191 -11 196 -6 4 -17 25 -24 47 -7 22 -21 46
-30 52 -10 7 -21 28 -24 46 -4 21 -17 42 -36 56 -17 12 -30 28 -30 36 0 8 -7
15 -15 15 -8 0 -15 5 -15 10 0 6 -6 10 -14 10 -8 0 -24 15 -35 34 -12 18 -29
36 -39 40 -18 6 -54 27 -62 37 -3 3 -27 14 -55 24 -27 10 -54 24 -60 30 -5 7
-28 15 -50 19 -22 4 -47 14 -56 22 -13 12 -46 15 -146 15 -127 1 -183 -6 -183
-21 0 -4 -25 -11 -55 -15 -36 -4 -55 -11 -55 -20 0 -8 -18 -16 -50 -20 -27 -4
-65 -17 -84 -30 -19 -13 -42 -25 -53 -27 -10 -2 -22 -13 -28 -26 -6 -13 -22
-24 -40 -28 -19 -3 -35 -14 -40 -27 -6 -12 -20 -26 -32 -32 -12 -5 -24 -17
-26 -27 -3 -10 -17 -22 -31 -28 -14 -5 -26 -16 -26 -25 0 -8 -4 -15 -8 -15 -5
0 -19 -19 -32 -42 -13 -24 -31 -49 -41 -55 -9 -7 -20 -31 -24 -53 -4 -24 -14
-44 -26 -50 -10 -6 -19 -19 -19 -30 0 -11 -9 -24 -19 -29 -14 -8 -21 -27 -26
-73 -4 -35 -15 -79 -25 -98 -10 -20 -23 -80 -29 -135 -16 -136 -20 -155 -37
-155 -10 0 -14 -12 -14 -37 0 -21 -10 -58 -22 -83 -11 -25 -24 -52 -28 -60
-11 -23 -37 -23 -60 0 -35 35 -150 51 -389 56 -180 3 -216 6 -223 19 -5 8 -16
15 -23 15 -10 0 -15 12 -16 38 -5 169 -2 202 16 202 8 0 19 17 25 41 6 22 20
49 31 60 10 10 19 26 19 35 0 8 16 22 35 30 19 8 35 18 35 23 0 36 159 39 186
4 13 -17 13 -17 15 2 7 71 -13 103 -68 111 -52 8 -156 -4 -148 -17 4 -5 -2
-12 -12 -16 -24 -9 -88 -73 -96 -95 -4 -10 -13 -18 -22 -18 -8 0 -15 -6 -15
-14 0 -8 -6 -21 -14 -29 -17 -16 -46 -98 -46 -130 0 -12 -7 -31 -15 -41 -20
-27 -20 -124 0 -147 21 -22 11 -63 -18 -77 -12 -6 -55 -16 -94 -22 -40 -7 -73
-16 -73 -21 0 -18 -29 -9 -59 19 -25 22 -31 38 -37 87 -4 37 -14 67 -24 77
-10 9 -20 37 -24 62 -3 25 -9 66 -12 91 -4 27 -11 45 -19 45 -16 0 -25 22 -25
58 0 16 -8 32 -19 39 -13 8 -22 29 -27 58 -4 29 -13 49 -25 56 -11 5 -19 15
-19 22 0 36 -22 85 -40 90 -11 3 -20 12 -20 21 0 9 -6 16 -12 16 -7 0 -22 20
-33 45 -11 25 -25 45 -31 45 -7 0 -18 13 -25 29 -7 17 -21 32 -31 34 -10 3
-18 12 -18 20 0 8 -9 17 -20 20 -11 3 -23 13 -27 23 -8 22 -80 94 -93 94 -5 0
-10 7 -10 15 0 8 -7 15 -15 15 -8 0 -29 13 -46 30 -28 27 -82 50 -116 50 -7 0
-13 6 -13 14 0 15 -21 26 -50 26 -10 0 -20 6 -23 14 -9 23 -147 36 -261 25z
m64 -179 c0 -5 14 -11 30 -15 21 -5 30 -13 30 -26 0 -13 7 -19 21 -19 13 0 23
-8 26 -20 3 -12 24 -29 49 -41 24 -11 44 -26 44 -33 0 -8 14 -27 30 -43 17
-15 30 -36 30 -46 0 -9 11 -22 25 -27 14 -5 25 -16 25 -24 0 -8 6 -19 14 -23
20 -12 34 -69 42 -170 3 -51 10 -90 15 -87 5 3 9 -1 9 -8 0 -7 5 -119 10 -249
10 -246 22 -334 46 -343 8 -3 14 -19 14 -36 0 -18 5 -30 13 -30 19 0 42 -69
28 -83 -7 -7 -17 -12 -24 -13 -7 0 -22 -2 -34 -2 -14 -1 -28 -14 -38 -36 -18
-37 -45 -50 -78 -36 -12 5 -18 9 -14 9 15 1 -50 60 -77 71 -14 5 -26 16 -26
24 0 8 -17 20 -37 26 -41 13 -72 45 -73 73 0 9 -7 17 -15 17 -19 0 -67 29 -78
47 -4 7 -14 13 -22 13 -8 0 -17 11 -21 25 -3 13 -14 27 -23 30 -10 3 -26 23
-37 44 -12 26 -30 43 -51 52 -25 10 -34 21 -43 57 -7 27 -17 46 -28 49 -18 4
-42 65 -42 108 0 16 -6 25 -15 25 -9 0 -20 12 -26 27 -6 15 -14 30 -20 33 -5
4 -12 26 -15 51 -3 24 -10 60 -15 79 -12 48 -11 230 2 307 8 44 17 66 30 74
10 5 19 16 19 25 0 8 11 19 25 24 15 6 25 17 25 29 0 12 11 23 30 30 17 5 30
16 30 24 0 9 14 17 36 21 19 4 43 15 54 26 16 16 24 17 59 8 23 -6 41 -14 41
-18z m3246 1 c5 -5 26 -14 47 -21 20 -6 37 -16 37 -21 0 -5 7 -9 15 -9 26 0
95 -32 95 -44 0 -7 19 -16 43 -22 29 -6 45 -16 52 -31 5 -13 13 -23 17 -23 5
0 8 -4 8 -10 0 -5 11 -20 25 -34 14 -14 25 -32 25 -41 0 -8 7 -15 15 -15 8 0
17 -11 21 -24 3 -14 12 -27 19 -29 30 -12 30 -351 0 -381 -8 -7 -19 -33 -25
-57 -7 -24 -17 -51 -24 -59 -7 -8 -18 -34 -26 -57 -7 -24 -17 -43 -21 -43 -8
0 -41 -64 -44 -85 0 -5 -6 -9 -13 -8 -7 2 -12 -1 -12 -5 0 -5 -10 -14 -23 -19
-15 -7 -28 -26 -35 -52 -8 -24 -19 -41 -28 -41 -8 0 -19 -11 -24 -25 -5 -14
-16 -25 -25 -25 -9 0 -20 -11 -25 -25 -5 -14 -16 -25 -24 -25 -7 0 -16 -9 -19
-20 -3 -11 -16 -24 -30 -29 -14 -6 -28 -18 -31 -28 -3 -11 -22 -25 -41 -32
-19 -7 -35 -18 -35 -26 0 -7 -10 -17 -22 -21 -12 -4 -31 -17 -41 -30 -10 -13
-27 -24 -38 -24 -11 0 -22 -6 -25 -14 -3 -8 -26 -20 -51 -28 -28 -8 -48 -20
-51 -30 -2 -10 -8 -18 -12 -18 -4 0 -22 -3 -39 -6 -26 -5 -31 -3 -31 12 -1 22
-23 54 -38 54 -5 0 -12 7 -16 15 -3 8 -16 15 -30 15 -14 0 -28 5 -31 10 -10
16 6 100 19 100 13 0 31 64 41 147 4 30 12 54 21 57 17 6 21 152 4 158 -5 2
-19 54 -31 116 -15 76 -26 112 -35 112 -8 0 -17 12 -20 28 -4 15 -11 30 -16
33 -18 12 -22 88 -5 107 8 9 19 35 23 56 4 22 17 55 30 74 13 19 24 44 24 54
0 11 8 22 19 25 10 3 24 21 31 43 7 22 21 40 31 43 11 3 19 13 19 24 0 11 12
24 30 31 17 8 30 17 30 22 0 19 69 80 97 86 19 4 33 14 36 26 3 11 14 22 25
25 11 3 22 13 25 24 3 12 17 22 36 25 17 4 28 10 25 15 -7 12 39 12 52 0z
m-2999 -37 c-3 -3 -12 -4 -19 -1 -8 3 -5 6 6 6 11 1 17 -2 13 -5z m2677 -9
c-3 -8 -21 -17 -40 -21 -19 -3 -34 -12 -34 -19 0 -16 -35 -47 -43 -39 -4 4
-10 -2 -13 -12 -4 -10 -19 -31 -33 -46 -47 -48 -81 -100 -81 -123 0 -8 -8 -15
-18 -15 -17 0 -24 -20 -48 -137 -1 -7 -9 -20 -18 -29 -11 -11 -16 -34 -16 -75
0 -38 -4 -58 -10 -54 -6 4 -10 -8 -10 -29 0 -20 4 -36 9 -36 5 0 11 -22 15
-50 4 -31 12 -50 20 -50 9 0 18 -32 29 -97 9 -54 16 -105 15 -113 0 -8 0 -26
1 -40 2 -23 3 -24 11 -5 7 17 9 14 9 -13 1 -18 -3 -31 -7 -28 -8 5 -22 -58
-38 -161 -3 -24 -12 -47 -21 -51 -8 -5 -17 -27 -20 -50 -3 -23 -9 -42 -14 -42
-22 0 -44 -95 -40 -172 1 -33 42 -48 116 -45 l50 2 0 -85 c0 -47 4 -90 8 -97
4 -7 23 -15 42 -19 30 -5 34 -10 40 -45 4 -24 12 -39 21 -39 8 0 16 -6 18 -12
3 -7 10 -34 17 -60 7 -27 19 -48 26 -48 7 0 13 -4 13 -9 0 -9 -57 -27 -73 -23
-4 1 -47 5 -95 8 -47 3 -90 10 -93 16 -4 6 -63 14 -140 18 -96 6 -136 12 -143
22 -9 11 -81 18 -348 30 -267 12 -340 19 -352 30 -11 11 -56 17 -193 22 -98 4
-192 9 -209 11 -16 2 -58 5 -92 7 -34 1 -62 6 -62 9 0 11 -40 17 -160 25 -63
3 -118 11 -121 16 -7 11 -160 28 -263 28 -102 0 -256 20 -256 33 0 5 -7 4 -15
-3 -12 -10 -15 -10 -15 0 0 10 -3 10 -15 0 -24 -20 -19 36 5 60 11 11 20 27
20 35 0 21 67 47 90 35 32 -17 60 -11 72 15 6 14 17 25 23 25 7 0 15 19 19 42
5 28 10 38 15 29 6 -9 10 -7 14 10 6 21 9 21 74 15 51 -5 78 -3 105 8 32 14
37 14 48 1 7 -8 19 -15 26 -15 8 0 14 -5 14 -10 0 -17 66 -80 83 -80 9 0 21
-9 27 -19 5 -11 24 -22 42 -26 18 -3 43 -11 56 -18 18 -8 36 -8 80 4 51 13 57
17 60 43 5 41 -6 76 -23 76 -8 0 -15 7 -15 15 0 17 -3 18 -67 35 -24 6 -43 16
-43 23 0 10 -55 29 -119 41 -8 2 -17 8 -19 14 -4 13 -62 17 -62 5 0 -5 -11
-13 -24 -19 -29 -13 -36 -3 -36 52 0 21 -5 34 -13 34 -15 0 -37 67 -37 112 0
17 -3 28 -7 25 -10 -11 -33 14 -33 37 0 12 -8 26 -19 33 -22 14 -28 68 -37
338 -3 99 -9 182 -13 185 -4 3 -13 48 -20 100 -15 113 -30 180 -42 180 -5 0
-9 7 -9 15 0 8 -10 21 -23 30 -13 8 -29 30 -36 50 -7 20 -19 35 -28 35 -9 0
-13 3 -10 7 4 3 2 12 -4 20 -6 7 -8 13 -4 13 5 0 0 9 -10 20 -10 11 -24 20
-31 20 -7 0 -15 9 -19 19 -3 11 -11 22 -18 24 -7 2 1 3 17 1 34 -5 56 -21 56
-40 0 -8 9 -14 20 -14 11 0 27 -11 36 -25 9 -14 23 -25 30 -25 8 0 14 -7 14
-15 0 -9 11 -20 25 -25 15 -6 25 -17 25 -30 0 -18 10 -24 32 -21 3 0 12 -13
20 -29 7 -17 19 -30 26 -30 8 0 16 -9 19 -20 3 -10 14 -22 24 -25 10 -4 22
-18 25 -31 4 -14 17 -29 30 -34 17 -7 23 -18 26 -47 2 -28 9 -41 26 -48 14 -6
22 -18 22 -33 0 -15 7 -26 19 -29 15 -4 20 -18 25 -64 5 -39 14 -67 27 -80 10
-10 19 -29 19 -41 0 -35 27 -117 45 -134 8 -9 15 -24 15 -34 0 -28 11 -50 24
-50 8 0 18 -28 26 -70 8 -43 18 -70 26 -70 7 0 20 -25 29 -55 10 -35 21 -55
30 -55 8 0 15 -7 15 -15 0 -9 11 -20 25 -25 15 -6 25 -17 25 -30 0 -13 7 -20
20 -20 26 0 40 36 40 99 l0 48 79 7 c99 9 148 0 167 -29 8 -13 27 -26 41 -30
14 -3 32 -13 40 -20 21 -21 169 -21 177 0 3 8 14 15 25 15 11 0 32 11 47 25
30 28 102 35 126 12 18 -17 65 -37 88 -37 14 0 20 -7 20 -22 0 -40 -11 -66
-30 -71 -32 -8 -34 -147 -1 -147 26 0 42 -15 36 -33 -5 -10 -25 -18 -60 -22
-30 -4 -53 -12 -52 -18 1 -5 -20 -15 -47 -21 -38 -9 -53 -18 -67 -41 -24 -41
-23 -62 5 -91 23 -25 27 -26 116 -22 65 3 96 9 104 19 6 8 29 16 51 17 56 4
95 12 95 21 0 4 22 13 48 20 46 13 49 16 59 60 13 56 1 97 -30 103 -13 2 -60
1 -107 -4 -46 -4 -85 -6 -87 -5 -6 7 30 69 43 74 8 3 17 23 20 44 4 22 11 42
15 45 5 3 9 14 9 25 0 10 7 19 15 19 9 0 15 9 15 24 0 15 7 26 18 28 14 4 22
22 31 69 6 35 14 76 17 92 3 15 11 27 18 27 7 0 16 31 24 77 7 45 18 81 26 85
8 4 17 30 21 57 4 31 13 52 22 55 9 4 14 9 11 12 -3 2 1 30 8 62 8 31 14 72
14 90 0 20 5 32 14 32 7 0 16 12 19 28 3 15 9 41 12 57 3 17 8 41 11 54 3 13
8 21 11 17 10 -9 33 15 33 34 0 10 9 20 20 23 12 3 20 14 20 25 0 11 16 35 35
53 19 19 35 38 35 44 0 6 16 18 36 25 21 9 41 26 49 45 15 30 43 47 98 61 15
3 32 14 37 23 9 18 71 41 109 41 12 0 19 4 16 10 -3 6 3 10 14 10 14 0 19 -5
15 -15z m-3136 -1854 c9 -5 12 -28 10 -77 l-3 -69 -65 3 c-80 4 -94 18 -86 85
3 26 8 52 11 57 7 12 115 13 133 1z m281 -37 c30 -6 31 -9 31 -56 0 -75 -11
-88 -73 -88 -33 0 -47 3 -39 9 10 6 7 10 -12 15 -23 6 -26 11 -26 50 0 66 7
76 50 76 21 0 52 -3 69 -6z m-145 -120 c17 -7 24 -84 7 -84 -5 0 -11 -13 -14
-30 -6 -29 -9 -30 -56 -30 -39 0 -53 4 -60 19 -9 17 -7 88 4 119 5 13 90 17
119 6z m1483 -45 c8 -7 9 -50 6 -149 l-6 -139 26 -6 c14 -4 41 -9 59 -11 18
-2 39 -5 46 -6 6 -1 12 -15 12 -32 0 -21 -3 -27 -9 -18 -6 10 -10 5 -14 -17
-7 -32 0 -61 13 -61 4 0 19 -11 34 -25 14 -13 26 -20 26 -15 0 15 30 12 46 -4
17 -17 18 -48 3 -63 -15 -15 16 -73 40 -73 10 0 21 -6 24 -14 4 -9 36 -15 109
-21 57 -4 105 -11 108 -16 5 -8 171 -21 425 -35 133 -7 186 -14 181 -23 -6
-10 181 -23 211 -15 23 6 33 30 33 84 0 51 11 62 56 60 75 -5 90 -1 102 25 7
14 12 39 12 55 0 38 27 40 58 5 13 -14 34 -30 48 -35 14 -6 28 -19 31 -30 3
-11 14 -22 24 -25 15 -5 19 -16 19 -50 l0 -44 -45 -7 c-26 -3 -45 -12 -45 -19
0 -7 -20 -15 -52 -18 -28 -4 -56 -11 -62 -17 -5 -5 -18 -10 -28 -10 -10 0 -18
-4 -18 -9 0 -6 -20 -13 -45 -17 -27 -4 -49 -13 -55 -23 -5 -10 -27 -23 -49
-31 -45 -14 -52 -33 -20 -50 16 -9 18 -14 9 -25 -7 -8 -9 -19 -6 -24 4 -5 2
-12 -3 -15 -5 -4 1 -18 15 -33 23 -25 26 -26 77 -15 28 6 88 14 132 17 65 6
78 4 68 -6 -7 -7 -13 -21 -13 -31 0 -10 -11 -25 -25 -34 -17 -11 -25 -25 -25
-45 0 -15 -4 -31 -10 -34 -13 -8 -13 -80 0 -126 8 -28 17 -39 38 -44 15 -4 30
-11 33 -17 4 -6 13 -7 25 0 89 46 87 46 129 23 21 -11 41 -24 44 -28 8 -11 43
-32 64 -39 9 -4 17 -12 17 -19 0 -7 10 -15 23 -19 13 -3 29 -17 35 -31 6 -14
18 -25 27 -25 8 0 15 -6 15 -13 0 -7 13 -20 28 -29 15 -9 34 -33 42 -52 8 -21
25 -41 40 -47 20 -9 30 -26 43 -70 9 -32 17 -65 17 -74 0 -9 6 -18 14 -21 29
-11 41 -149 41 -459 0 -214 -15 -380 -35 -395 -8 -6 -40 -137 -40 -162 0 -10
-9 -22 -20 -28 -11 -6 -20 -20 -20 -31 0 -11 -7 -22 -15 -25 -8 -4 -20 -26
-27 -51 -8 -32 -18 -47 -34 -54 -15 -5 -24 -17 -24 -30 0 -12 -8 -23 -19 -26
-17 -4 -47 -49 -43 -65 1 -5 -4 -8 -12 -8 -7 0 -32 -18 -54 -40 -22 -22 -47
-40 -56 -40 -9 0 -16 -8 -16 -20 0 -13 -7 -20 -20 -20 -10 0 -23 -6 -27 -13
-10 -15 -70 -47 -88 -47 -8 0 -18 -6 -22 -13 -10 -16 -58 -37 -83 -37 -10 0
-22 -9 -25 -20 -4 -14 -15 -20 -35 -20 -16 0 -38 -9 -48 -20 -15 -17 -43 -23
-151 -34 -73 -8 -138 -19 -144 -25 -6 -6 -43 -11 -83 -11 -55 0 -73 4 -78 15
-8 22 -53 19 -66 -4 -5 -11 -23 -22 -39 -26 -25 -5 -31 -12 -36 -45 -4 -21
-13 -41 -21 -44 -19 -7 -41 2 -48 20 -8 20 -82 19 -90 -1 -3 -9 -18 -15 -36
-15 -28 0 -30 3 -30 35 0 29 -5 37 -25 45 -30 12 -762 9 -786 -3 -8 -4 -22
-23 -29 -42 -16 -40 -54 -49 -63 -15 -4 16 -14 20 -50 20 -27 0 -52 -6 -60
-15 -19 -19 -59 -27 -76 -16 -15 10 -5 35 10 26 5 -4 9 3 9 14 0 11 -9 25 -20
31 -11 6 -20 17 -20 24 0 20 -13 23 -161 36 -169 14 -201 19 -195 29 6 10 -66
21 -133 21 -33 0 -51 5 -62 18 -13 15 -37 20 -124 25 -87 6 -113 11 -129 26
-12 11 -37 21 -56 24 -38 6 -76 15 -100 24 -8 4 -18 5 -22 5 -5 -1 -8 5 -8 13
0 8 -7 15 -15 15 -8 0 -15 6 -15 14 0 8 -14 17 -30 21 -17 4 -53 24 -80 46
-27 21 -56 39 -65 39 -8 0 -15 7 -15 15 0 9 -7 18 -15 21 -8 4 -15 12 -15 20
0 8 -4 14 -9 14 -4 0 -26 18 -47 40 -22 22 -45 40 -51 40 -7 0 -13 7 -13 15 0
9 -6 18 -14 21 -7 3 -22 22 -32 42 -11 20 -26 43 -36 49 -9 7 -19 31 -23 54
-5 29 -13 43 -26 46 -10 3 -19 13 -19 21 0 9 -11 25 -25 37 -20 15 -27 33 -32
74 -4 33 -13 60 -25 71 -13 12 -21 41 -28 101 -6 46 -10 90 -10 97 0 6 -7 12
-15 12 -21 0 -22 227 -1 244 10 8 17 52 24 154 8 109 15 153 31 185 12 24 21
54 21 68 0 13 7 37 15 53 8 15 15 35 15 43 0 8 5 11 10 8 6 -3 10 4 10 18 0
13 11 36 24 50 16 17 26 44 31 78 5 35 12 53 24 56 15 4 40 57 43 90 1 7 10
15 20 19 10 3 18 11 18 19 0 7 8 15 18 18 11 2 21 17 25 34 3 17 13 33 21 36
20 8 86 -20 86 -36 0 -11 65 -47 84 -47 4 0 15 -7 23 -16 20 -20 59 -11 84 19
13 16 18 39 19 83 0 67 -8 80 -56 90 -20 4 -34 16 -44 37 -8 18 -22 32 -30 32
-8 0 -15 5 -15 10 -1 24 -39 85 -52 85 -8 0 -13 6 -11 13 3 7 29 13 69 15 87
4 127 18 131 45 2 12 13 26 26 32 12 5 25 18 28 27 11 35 -5 54 -56 67 -28 7
-50 16 -50 20 0 4 -19 14 -42 22 -24 7 -48 19 -55 25 -7 6 -42 17 -78 24 -36
7 -67 15 -69 19 -9 14 10 116 21 114 7 -2 14 7 18 20 26 99 37 117 48 76 3
-11 15 -23 26 -26 12 -3 21 -14 21 -24 0 -24 14 -26 180 -34 74 -3 149 -7 165
-10 17 -2 56 -5 88 -6 31 -1 57 -5 57 -9 0 -4 57 -13 128 -20 70 -7 130 -17
133 -23 8 -12 295 -25 315 -14 10 6 14 26 14 67 0 57 1 59 30 65 17 4 44 4 61
0 32 -7 69 15 69 40 0 7 7 15 15 19 10 3 15 19 15 45 l0 39 65 4 c36 2 69 8
74 13 5 6 12 55 16 110 9 138 10 143 43 147 49 6 187 -3 199 -13z m-1199 -1
c13 -13 16 -58 6 -107 -7 -32 -7 -32 -63 -29 -64 3 -67 8 -56 94 l6 54 48 0
c26 0 52 -5 59 -12z m1520 -21 c9 -18 11 -43 6 -73 l-6 -45 -57 3 -56 3 -3 58
c-4 73 8 89 62 85 33 -2 43 -8 54 -31z m252 3 c0 -5 8 -10 19 -10 30 0 42 -25
39 -77 l-3 -48 -40 -3 c-21 -2 -54 -1 -72 3 -30 5 -33 9 -33 41 0 21 4 33 10
29 6 -3 10 1 10 10 0 26 31 65 51 65 11 0 19 -4 19 -10z m-1934 -120 c19 0 20
-4 13 -66 -4 -37 -12 -70 -20 -75 -15 -9 -72 0 -78 13 -2 5 -14 13 -27 18 -20
8 -24 16 -24 55 0 53 20 68 80 60 19 -3 44 -5 56 -5z m294 -15 c17 -5 20 -16
20 -70 0 -54 -3 -63 -19 -68 -23 -6 -108 0 -122 8 -10 7 -12 58 -3 101 5 27 9
29 55 32 28 2 59 0 69 -3z m1537 -8 c4 -3 6 -34 3 -69 -5 -61 -6 -63 -34 -66
-17 -2 -49 -1 -73 3 -43 6 -43 6 -43 48 0 57 9 85 29 91 19 5 106 1 118 -7z
m287 -33 c12 -5 16 -20 16 -59 0 -29 -3 -60 -6 -69 -9 -23 -92 -21 -123 3 -22
17 -23 23 -17 75 l7 56 54 0 c29 0 60 -3 69 -6z m-147 -139 c14 -19 12 -92 -3
-116 -8 -13 -118 -11 -132 3 -15 15 -16 79 -1 112 10 22 17 24 66 22 42 -1 59
-7 70 -21z m259 -30 c4 -8 15 -15 25 -15 24 0 33 -36 22 -81 l-9 -34 -65 0
-64 0 -3 40 c-2 21 -1 54 3 72 5 31 9 33 46 33 26 0 42 -5 45 -15z m-2536
-364 c6 -12 24 -21 43 -24 17 -2 -5 -5 -51 -5 -86 -2 -122 8 -122 33 0 12 14
15 60 15 48 0 61 -4 70 -19z m4625 -59 c5 -12 15 -22 22 -22 7 0 13 -7 13 -16
0 -9 9 -18 19 -21 23 -6 41 -51 41 -99 0 -21 6 -37 17 -43 21 -11 42 -96 43
-168 0 -32 6 -57 15 -67 12 -11 15 -43 15 -149 0 -80 -4 -137 -10 -139 -5 -1
-17 -70 -25 -152 -12 -123 -18 -153 -35 -171 -11 -12 -20 -29 -20 -39 0 -36
-23 -145 -30 -141 -4 2 -13 -11 -20 -30 -8 -19 -20 -35 -27 -35 -7 0 -10 -6
-7 -14 3 -8 1 -17 -5 -20 -5 -4 -13 -26 -16 -50 -5 -31 -13 -46 -25 -49 -10
-3 -21 -18 -25 -36 -4 -18 -18 -43 -31 -56 -13 -13 -24 -31 -24 -39 0 -8 -9
-18 -21 -21 -11 -4 -25 -20 -31 -36 -5 -16 -15 -29 -20 -29 -6 0 -28 -19 -49
-42 -22 -24 -42 -43 -47 -44 -19 -2 -42 -17 -42 -28 -1 -26 -120 -63 -120 -36
0 6 6 10 14 10 7 0 16 9 19 19 2 11 15 21 28 23 16 2 25 11 27 25 2 12 11 25
22 28 10 3 20 14 23 25 3 11 17 24 31 30 14 5 26 16 26 24 0 7 9 16 19 19 11
3 22 17 26 36 4 17 13 31 20 31 8 0 22 22 32 50 10 28 23 50 30 50 7 0 15 15
19 34 3 19 12 37 19 40 7 2 20 29 29 59 9 30 23 57 31 61 8 3 14 9 13 13 -5
22 27 136 43 154 11 12 19 28 19 36 0 7 6 13 13 13 23 0 42 221 42 485 0 132
-4 258 -8 280 -8 36 -12 66 -16 103 0 7 -5 11 -10 8 -5 -3 -11 3 -14 14 -3 12
-14 20 -27 20 -11 0 -19 4 -16 9 7 11 -23 38 -49 43 -11 2 -19 9 -18 15 3 12
-5 15 -59 27 -39 9 -35 22 10 33 51 12 95 2 107 -25z m-1237 -34 c-2 -19 -11
-24 -53 -29 -60 -7 -109 2 -60 11 17 3 28 10 25 15 -3 5 9 13 25 16 58 13 67
11 63 -13z m222 -107 c0 -5 -13 -16 -30 -25 -29 -14 -30 -14 -30 10 0 20 5 24
30 24 17 0 30 -4 30 -9z m587 -1677 c-3 -3 -12 -4 -19 -1 -8 3 -5 6 6 6 11 1
17 -2 13 -5z"/>
<path d="M1338 6674 c-19 -9 -28 -23 -28 -38 0 -13 -7 -26 -14 -29 -8 -3 -18
-22 -22 -42 -3 -19 -10 -38 -15 -40 -16 -10 -139 18 -139 32 0 8 -12 13 -30
13 -20 0 -30 -5 -30 -15 0 -8 -4 -15 -10 -15 -5 0 -10 -14 -10 -31 0 -25 6
-32 38 -46 20 -8 40 -21 45 -29 4 -7 22 -16 40 -19 20 -4 37 -15 42 -28 12
-27 -12 -209 -29 -219 -8 -6 -8 -8 2 -8 6 0 12 -11 12 -24 0 -37 16 -72 36
-80 11 -4 35 1 56 11 35 17 38 21 38 61 0 24 6 50 14 57 7 8 16 36 20 64 6 46
9 51 31 51 15 0 25 -6 25 -15 0 -8 11 -17 24 -21 14 -3 27 -11 29 -18 8 -20
91 -40 113 -28 11 6 24 9 29 9 6 -1 11 13 13 32 4 43 -6 103 -17 97 -4 -3 -17
1 -27 9 -10 8 -27 15 -36 15 -10 0 -22 9 -28 20 -6 11 -14 19 -18 18 -4 -1
-19 2 -33 6 -43 12 -51 39 -41 143 4 51 4 100 -1 108 -10 19 -44 19 -79 -1z"/>
<path d="M2417 4407 c-75 -11 -79 -13 -92 -44 -8 -18 -21 -33 -30 -33 -12 0
-15 -8 -13 -35 2 -20 7 -35 13 -34 12 1 23 -28 24 -64 1 -16 11 -38 26 -51 14
-13 25 -28 25 -34 0 -6 10 -12 23 -14 17 -2 22 -10 22 -33 0 -28 -3 -30 -39
-33 -21 -2 -43 1 -49 7 -6 6 -19 11 -29 11 -11 0 -18 7 -18 21 0 13 -10 23
-30 30 -16 6 -30 14 -30 19 0 13 -41 19 -66 10 -31 -12 -35 -74 -5 -89 10 -6
23 -23 29 -39 10 -30 57 -83 66 -75 2 3 12 -9 21 -26 8 -17 21 -31 28 -31 7 0
20 -9 30 -20 20 -24 101 -28 114 -7 12 20 53 28 53 11 0 -8 7 -14 15 -14 8 0
15 -8 15 -18 0 -30 88 -56 172 -50 38 3 75 11 81 17 6 6 21 11 34 11 14 0 23
6 23 15 0 8 7 15 15 15 9 0 20 11 25 25 5 14 21 30 35 35 14 5 25 15 25 22 0
22 63 140 77 145 11 4 10 10 -6 25 -12 10 -21 25 -21 33 0 7 -15 23 -34 34
-36 23 -51 27 -41 12 3 -6 -13 -13 -36 -18 -22 -4 -40 -12 -39 -17 1 -5 -9
-14 -22 -20 -13 -6 -27 -21 -33 -34 -5 -12 -17 -22 -26 -22 -9 0 -22 -7 -29
-15 -7 -8 -19 -15 -26 -15 -8 0 -14 -4 -14 -10 0 -5 -9 -10 -20 -10 -11 0 -20
5 -20 10 0 6 -11 16 -25 22 -40 18 -29 34 38 53 59 17 64 20 75 56 16 51 16
181 0 197 -7 7 -20 12 -30 12 -11 0 -18 7 -18 18 0 15 -13 21 -65 30 -107 20
-117 21 -198 9z"/>
<path d="M3308 3113 c-9 -2 -19 -15 -22 -28 -3 -13 -17 -35 -31 -49 -14 -14
-25 -30 -25 -36 0 -6 -13 -25 -30 -42 -16 -16 -30 -37 -30 -47 0 -10 -14 -23
-35 -31 -19 -8 -35 -19 -35 -27 0 -7 -13 -25 -28 -41 -16 -16 -34 -43 -41 -60
-8 -18 -20 -32 -27 -32 -8 0 -19 -10 -25 -22 -5 -13 -17 -34 -25 -48 -22 -36
-13 -105 17 -130 13 -10 29 -19 35 -20 7 0 14 -9 17 -20 3 -11 20 -27 39 -35
42 -19 68 -39 68 -54 0 -6 11 -16 25 -21 14 -5 26 -14 26 -20 1 -5 3 -14 4
-20 1 -5 3 -22 4 -36 1 -17 8 -28 21 -31 11 -3 20 -13 20 -23 0 -32 25 -42 86
-36 70 7 124 26 124 43 0 7 9 13 20 13 14 0 25 12 37 42 9 23 19 36 21 29 4
-13 19 8 42 57 5 13 14 21 19 18 5 -3 11 1 15 9 3 8 12 15 20 15 9 0 17 15 21
40 4 22 14 46 23 53 20 15 52 73 52 93 0 9 4 12 10 9 5 -3 15 14 22 39 6 25
15 43 18 41 14 -9 30 14 35 50 4 23 15 46 26 54 49 35 -3 87 -78 76 -35 -5
-46 -12 -54 -33 -5 -14 -19 -32 -29 -39 -11 -8 -20 -23 -20 -34 0 -29 -18 -59
-35 -59 -8 0 -15 -8 -15 -19 0 -10 -11 -26 -25 -35 -14 -9 -24 -20 -23 -24 7
-23 -13 -70 -31 -75 -12 -3 -21 -13 -21 -22 0 -9 -11 -31 -25 -49 -14 -18 -25
-38 -25 -43 0 -6 -8 -13 -19 -16 -10 -2 -25 -17 -32 -33 -20 -41 -42 -37 -44
7 -3 60 -13 86 -35 92 -15 4 -20 13 -20 42 0 28 -5 38 -19 42 -11 3 -22 11
-25 19 -7 19 -65 18 -72 -1 -4 -9 -19 -15 -41 -15 -33 0 -35 2 -28 27 6 24 39
63 54 63 6 0 32 55 35 73 0 4 7 11 14 16 14 9 37 44 48 73 3 9 14 18 25 21 13
3 19 14 19 31 0 14 5 25 11 24 6 -2 19 21 28 49 9 29 22 58 29 65 14 14 16 48
2 48 -5 0 -10 6 -10 14 0 11 -26 30 -33 25 -1 -1 -9 -3 -19 -6z"/>
<path d="M1570 3100 c0 -6 -11 -15 -25 -20 -21 -8 -25 -16 -25 -51 0 -33 4
-42 20 -46 11 -3 22 -16 25 -29 3 -13 7 -35 10 -49 3 -14 11 -25 18 -25 19 0
77 -68 77 -90 0 -29 11 -50 25 -50 8 0 19 -15 26 -34 8 -23 22 -37 45 -46 26
-10 35 -22 44 -56 10 -35 10 -47 0 -59 -7 -8 -16 -13 -20 -10 -12 7 -19 -7
-26 -51 -3 -22 -8 -41 -10 -44 -3 -2 -26 -3 -51 -2 -25 1 -61 -5 -79 -14 -20
-10 -41 -13 -51 -8 -10 4 -22 8 -27 8 -10 1 -22 20 -36 59 -5 15 -16 27 -25
27 -8 0 -15 5 -15 10 0 6 -8 10 -18 10 -14 0 -21 15 -33 68 -9 40 -20 66 -27
65 -11 -3 -24 35 -38 110 -3 22 -12 37 -20 37 -8 0 -14 4 -14 9 0 13 -39 21
-71 14 -28 -5 -29 -8 -29 -64 0 -44 4 -59 14 -59 10 0 18 -23 27 -71 9 -52 17
-73 30 -76 9 -3 19 -18 23 -34 3 -16 10 -28 16 -27 6 2 19 -21 29 -51 10 -29
24 -56 29 -60 6 -4 18 -23 27 -44 8 -20 22 -37 30 -37 8 0 15 -7 15 -15 0 -9
11 -20 24 -24 13 -5 26 -19 29 -31 3 -12 15 -24 27 -27 12 -3 25 -16 30 -28 6
-15 20 -25 44 -29 19 -4 36 -12 38 -18 3 -7 14 -9 30 -5 18 5 30 17 37 40 16
47 56 79 103 83 50 3 68 19 68 59 0 30 3 33 45 44 34 9 45 16 45 31 0 11 6 20
14 20 24 0 28 17 27 100 -1 88 -7 110 -27 110 -8 0 -14 6 -14 13 0 6 -5 29
-11 50 -7 26 -15 37 -29 37 -11 0 -20 5 -20 10 0 6 -6 10 -13 10 -7 0 -20 23
-30 50 -12 32 -24 50 -34 50 -9 0 -13 3 -10 7 4 3 1 13 -7 22 -8 9 -16 25 -18
36 -2 11 -10 19 -16 17 -7 -1 -17 10 -22 24 -6 15 -13 24 -17 20 -10 -10 -33
15 -33 36 0 11 -9 22 -20 25 -11 3 -23 16 -26 29 -4 14 -16 31 -27 39 -24 17
-77 20 -77 5z"/>
<path d="M4790 4120 c-8 -5 -10 -10 -5 -10 6 0 17 5 25 10 8 5 11 10 5 10 -5
0 -17 -5 -25 -10z"/>
</g>
</svg>
